<?xml version="1.0" encoding="UTF-8" standalone="no"?>
<!-- Created with Inkscape (http://www.inkscape.org/) -->

<svg
   version="1.1"
   id="svg1"
   width="405.79541"
   height="361.28061"
   viewBox="0 0 405.79541 361.28061"
   sodipodi:docname="home.svg"
   inkscape:version="1.3.2 (1:1.3.2+202311252150+091e20ef0f)"
   xmlns:inkscape="http://www.inkscape.org/namespaces/inkscape"
   xmlns:sodipodi="http://sodipodi.sourceforge.net/DTD/sodipodi-0.dtd"
   xmlns="http://www.w3.org/2000/svg"
   xmlns:svg="http://www.w3.org/2000/svg">
  <defs
     id="defs1" />
  <sodipodi:namedview
     id="namedview1"
     pagecolor="#ffffff"
     bordercolor="#000000"
     borderopacity="0.25"
     inkscape:showpageshadow="2"
     inkscape:pageopacity="0.0"
     inkscape:pagecheckerboard="0"
     inkscape:deskcolor="#d1d1d1"
     inkscape:zoom="0.33764349"
     inkscape:cx="-214.72353"
     inkscape:cy="330.22997"
     inkscape:window-width="1920"
     inkscape:window-height="1017"
     inkscape:window-x="0"
     inkscape:window-y="26"
     inkscape:window-maximized="1"
     inkscape:current-layer="g1" />
  <g
     inkscape:groupmode="layer"
     inkscape:label="Image"
     id="g1"
     transform="translate(-185.45521,-117.57891)">
    <path
       style="fill:#25a0de;fill-opacity:1;stroke-width:2.66971"
       d="m 185.60682,378.30066 0.15164,-100.55896 18.53631,-14.17264 c 10.19499,-7.79496 39.77091,-31.50996 65.72431,-52.70001 27.58589,-22.5229 48.8855,-37.4782 51.27441,-36.00177 2.42001,1.49565 3.11936,0.9608 1.71496,-1.31157 -3.21745,-5.20596 28.23399,-30.65542 33.70582,-27.27364 2.58676,1.5987 3.32969,1.12578 1.89029,-1.20324 -3.3472,-5.41585 28.23378,-30.62562 34.0457,-27.17727 4.94739,2.93543 41.18506,32.02591 114.94956,92.27796 25.45119,20.78887 54.68448,44.47384 64.96285,52.63318 l 18.68795,14.83516 v 100.60582 100.60583 h -60.51336 -60.51333 l -0.13509,-34.70618 -0.13509,-34.70619 -13.7279,-9.48779 c -44.82843,-30.98237 -10.03828,-100.99575 42.38141,-85.29042 39.76531,11.91399 46.43575,68.44046 10.48952,88.88972 -9.36016,5.32484 -10.3531,7.67733 -10.37347,24.57644 l -0.0214,18.68794 h 32.03648 32.03648 v -76.23467 c 0,-76.08138 -0.016,-76.24784 -8.46839,-82.7609 -4.65762,-3.58943 -41.90003,-33.62213 -82.7609,-66.73933 -40.86088,-33.11723 -76.22242,-61.68568 -78.58122,-63.48547 -4.05848,-3.09667 -55.5532,36.49393 -146.10476,112.32954 l -29.36678,24.59424 v 76.14831 76.14828 l 29.36678,0.008 29.36677,0.008 -1.12136,-31.22256 c -1.09255,-30.41976 -1.3938,-31.37888 -11.71667,-37.30341 -5.82741,-3.34448 -12.93147,-11.67209 -15.78678,-18.50582 -15.04409,-36.00556 6.85194,-69.56348 45.4091,-69.59405 13.69591,-0.0107 19.09141,2.0124 29.3228,10.99567 25.28992,22.20483 24.52849,53.00038 -1.86914,75.59576 l -13.98128,11.96744 v 45.04356 45.04353 h -60.51447 -60.51336 z m 311.05991,-4.70378 c 11.14485,-11.14485 3.84272,-30.0024 -11.61771,-30.0024 -12.32326,0 -18.38472,5.86801 -18.38472,17.79802 0,5.09025 1.92219,11.17718 4.27153,13.52653 5.98994,5.98994 19.09206,5.31669 25.7309,-1.32215 z M 302.9223,350.7136 c 3.91558,-3.91556 7.11923,-9.52194 7.11923,-12.45862 0,-6.32827 -12.45765,-19.57786 -18.40768,-19.57786 -7.28296,0 -17.18843,11.48409 -17.18843,19.9277 0,7.31884 11.51405,19.228 18.59008,19.228 1.52218,0 5.97122,-3.20365 9.8868,-7.11922 z m 42.71531,94.07835 v -34.06757 l 14.23842,-16.88594 14.23846,-16.88593 v -37.84247 c 0,-37.78388 -0.016,-37.84969 -9.78894,-42.48622 -14.06593,-6.67272 -26.95843,-34.04277 -23.84731,-50.6265 3.08415,-16.43995 13.91552,-30.10877 28.78016,-36.3196 15.98452,-6.67878 24.89192,-6.18301 42.55699,2.36848 33.65961,16.29434 34.99836,63.83384 2.37721,84.41591 l -9.82145,6.19677 1.15508,36.96697 c 0.63528,20.33185 0.28713,40.35465 -0.77371,44.49512 -1.06083,4.14047 -8.38835,15.31122 -16.28342,24.82387 -9.46812,11.40803 -14.35461,20.79899 -14.35461,27.58696 v 10.29123 h 28.47685 28.47688 v 16.01824 16.01824 h -42.71531 -42.7153 z m 53.62816,-176.07458 c 8.23121,-4.40522 9.32453,-21.89583 1.76104,-28.17298 -16.21633,-13.45837 -39.30323,9.08018 -25.23009,24.63082 7.3099,8.07733 13.30443,8.98209 23.46905,3.54216 z"
       id="path1"
       sodipodi:nodetypes="ccssssssssscccccccsssccccscssscccccssssssccccccsssssssssssccccscsssscssssccccccccssss" />
  </g>
</svg>
