<svg xmlns="http://www.w3.org/2000/svg" viewBox="0 0 24 24">
  <path fill="#f5f5f5" d="M12 .5C5.65.5.5 5.65.5 12.02a11.5 11.5 0 0 0 7.87 10.93c.58.1.78-.25.78-.56V20.3c-3.2.7-3.86-1.37-3.86-1.37a3 3 0 0 0-1.26-1.67c-1.03-.69.08-.68.08-.68a2.4 2.4 0 0 1 1.77 1.2 2.43 2.43 0 0 0 3.31.95c.05-.58.29-1.05.55-1.3-2.55-.28-5.23-1.28-5.23-5.75a4.5 4.5 0 0 1 1.19-3.13 4.2 4.2 0 0 1-.11-3.17s.97-.3 3.18 1.2a10.9 10.9 0 0 1 5.62 0C16.12 4.7 17.1 5 17.1 5a4.2 4.2 0 0 1 .11 3.17 4.5 4.5 0 0 1 1.2 3.13c0 4.48-2.69 5.47-5.26 5.75.4.35.7 1.05.7 2.1v3.12c0 .31.21.67.8.56A11.5 11.5 0 0 0 23.5 12C23.5 5.65 18.35.5 12 .5Z"/>
</svg>
