<?xml version="1.0" encoding="UTF-8" standalone="no"?>
<svg
   width="404.68015"
   height="404.37082"
   version="1.1"
   id="svg7"
   sodipodi:docname="bootstrap.svg"
   inkscape:version="1.3.2 (1:1.3.2+202311252150+091e20ef0f)"
   xmlns:inkscape="http://www.inkscape.org/namespaces/inkscape"
   xmlns:sodipodi="http://sodipodi.sourceforge.net/DTD/sodipodi-0.dtd"
   xmlns="http://www.w3.org/2000/svg"
   xmlns:svg="http://www.w3.org/2000/svg">
  <sodipodi:namedview
     id="namedview7"
     pagecolor="#ffffff"
     bordercolor="#000000"
     borderopacity="0.25"
     inkscape:showpageshadow="2"
     inkscape:pageopacity="0.0"
     inkscape:pagecheckerboard="0"
     inkscape:deskcolor="#d1d1d1"
     inkscape:zoom="0.52756795"
     inkscape:cx="94.774521"
     inkscape:cy="410.37368"
     inkscape:window-width="1920"
     inkscape:window-height="1017"
     inkscape:window-x="0"
     inkscape:window-y="26"
     inkscape:window-maximized="1"
     inkscape:current-layer="svg7" />
  <defs
     id="defs6">
    <linearGradient
       id="bs-logo-a"
       x1="76.079002"
       x2="523.47998"
       y1="10.798"
       y2="365.94501"
       gradientUnits="userSpaceOnUse"
       gradientTransform="matrix(0.64986515,0,0,0.69213413,35.974597,60.990042)">
      <stop
         stop-color="#9013fe"
         id="stop1" />
      <stop
         offset="1"
         stop-color="#6610f2"
         id="stop2" />
    </linearGradient>
    <linearGradient
       id="bs-logo-b"
       x1="193.508"
       x2="293.51401"
       y1="109.74"
       y2="278.87201"
       gradientUnits="userSpaceOnUse">
      <stop
         stop-color="#fff"
         id="stop3" />
      <stop
         offset="1"
         stop-color="#f1e5fc"
         id="stop4" />
    </linearGradient>
    <filter
       id="bs-logo-c"
       width="197"
       height="249"
       x="161.901"
       y="83.457001"
       color-interpolation-filters="sRGB"
       filterUnits="userSpaceOnUse">
      <feFlood
         flood-opacity="0"
         result="BackgroundImageFix"
         id="feFlood4" />
      <feColorMatrix
         in="SourceAlpha"
         values="0 0 0 0 0 0 0 0 0 0 0 0 0 0 0 0 0 0 127 0"
         id="feColorMatrix4" />
      <feOffset
         dy="4"
         id="feOffset4" />
      <feGaussianBlur
         stdDeviation="8"
         id="feGaussianBlur4" />
      <feColorMatrix
         values="0 0 0 0 0 0 0 0 0 0 0 0 0 0 0 0 0 0 0.15 0"
         id="feColorMatrix5" />
      <feBlend
         in2="BackgroundImageFix"
         result="effect1_dropShadow"
         id="feBlend5"
         mode="normal" />
      <feBlend
         in="SourceGraphic"
         in2="effect1_dropShadow"
         result="shape"
         id="feBlend6"
         mode="normal" />
    </filter>
  </defs>
  <path
     fill="url(#bs-logo-a)"
     d="M 72.67963,97.894632 C 72.051865,78.69483 86.097393,60.990042 105.08256,60.990042 h 194.53908 c 18.98516,0 33.03069,17.704788 32.40292,36.90459 -0.60307,18.443308 0.18002,42.334398 5.82539,61.814508 5.66358,19.54033 15.214,31.89147 30.8556,33.47853 v 17.99549 c -15.6416,1.58706 -25.19202,13.9382 -30.8556,33.47853 -5.64537,19.48011 -6.42846,43.3712 -5.82539,61.81519 0.62777,19.19911 -13.41776,36.9039 -32.40292,36.9039 H 105.08256 c -18.985167,0 -33.030695,-17.70479 -32.402279,-36.9039 C 73.28271,288.03289 72.499614,264.1418 66.85359,244.66169 61.190665,225.12136 51.616852,212.77022 35.974597,211.18316 v -17.99549 c 15.641605,-1.58706 25.216068,-13.9382 30.878993,-33.47853 5.646024,-19.48011 6.42912,-43.3712 5.82604,-61.814508 z"
     id="path6"
     style="fill:url(#bs-logo-a);stroke-width:0.670667" />
  <path
     fill="url(#bs-logo-b)"
     filter="url(#bs-logo-c)"
     stroke="#ffffff"
     d="m 267.103,312.457 c 47.297,0 75.798,-23.158 75.798,-61.355 0,-28.873 -20.336,-49.776 -50.532,-53.085 v -1.203 c 22.185,-3.609 39.594,-24.211 39.594,-47.219 0,-32.783 -25.882,-54.138 -65.322,-54.138 h -88.74 v 217 z m -54.692,-189.48 h 45.911 c 24.958,0 39.131,11.128 39.131,31.279 0,21.505 -16.484,33.535 -46.372,33.535 h -38.67 z m 0,161.961 v -71.431 h 45.602 c 32.661,0 49.608,12.03 49.608,35.49 0,23.459 -16.484,35.941 -47.605,35.941 z"
     id="path7"
     style="fill:url(#bs-logo-b)"
     transform="matrix(0.64986515,0,0,0.69213413,33.114537,58.251272)" />
</svg>
