<?xml version="1.0" encoding="UTF-8" standalone="no"?>
<!-- Uploaded to: SVG Repo, www.svgrepo.com, Generator: SVG Repo Mixer Tools -->

<svg
   width="800px"
   height="800px"
   viewBox="0 0 32 32"
   fill="none"
   version="1.1"
   id="svg54"
   sodipodi:docname="linux-svgrepo-com.svg"
   inkscape:version="1.3.2 (1:1.3.2+202311252150+091e20ef0f)"
   xmlns:inkscape="http://www.inkscape.org/namespaces/inkscape"
   xmlns:sodipodi="http://sodipodi.sourceforge.net/DTD/sodipodi-0.dtd"
   xmlns="http://www.w3.org/2000/svg"
   xmlns:svg="http://www.w3.org/2000/svg">
  <sodipodi:namedview
     id="namedview54"
     pagecolor="#ffffff"
     bordercolor="#000000"
     borderopacity="0.25"
     inkscape:showpageshadow="2"
     inkscape:pageopacity="0.0"
     inkscape:pagecheckerboard="0"
     inkscape:deskcolor="#d1d1d1"
     inkscape:zoom="0.69915183"
     inkscape:cx="395.47919"
     inkscape:cy="369.73371"
     inkscape:window-width="1920"
     inkscape:window-height="1017"
     inkscape:window-x="0"
     inkscape:window-y="26"
     inkscape:window-maximized="1"
     inkscape:current-layer="svg54" />
  <path
     d="M 8.1742481,25.244847 C 7.9609573,24.960108 7.7743918,24.576137 7.6228926,24.116714 4.8879183,21.354838 7.0007231,17.29045 9.0905646,14.530557 9.290918,14.235452 9.5091451,13.950409 9.7464381,13.677711 11.340928,11.903734 11.75338,10.669205 11.876113,8.999031 11.890751,8.6880737 11.861984,8.2765131 11.828958,7.803524 11.660266,5.3888835 11.379907,1.3769922 16.191121,1.0213125 c 6.014019,-0.44465296 5.524114,4.5007184 5.479686,7.4001618 -0.0018,0.119962 -0.0038,0.2367232 -0.005,0.3493691 -0.01634,1.7477606 1.00228,2.9444876 2.0655,4.1934966 0.388281,0.456222 0.782521,0.919304 1.134544,1.418816 0.0104,0.01479 0.02077,0.02972 0.03115,0.04451 1.857996,2.39955 3.692332,5.980584 1.13914,9.377177 -0.358833,1.15938 -0.902188,2.223493 -1.627513,3.089447 -2.604088,3.068564 -4.918626,2.756998 -6.726236,2.513719 -0.545228,-0.07332 -1.044325,-0.14054 -1.491334,-0.106857 -0.742517,0.04055 -1.337621,0.148009 -1.851698,0.240992 -1.987027,0.359124 -2.763588,0.499512 -6.1651777,-4.297301 z"
     fill="#000000"
     id="path2"
     style="stroke-width:1.61082" />
  <path
     d="m 19.592202,3.7286486 c -0.05583,1.4212402 -1.739351,2.6557694 -3.757527,2.7698781 -2.018177,0.1141239 -3.601603,-0.9647893 -3.54577,-2.3860446 0.05566,-1.4212554 1.739351,-2.6557691 3.757528,-2.7698933 2.018178,-0.1037285 3.601433,0.9648043 3.545769,2.3860598 z"
     fill="url(#paint0_linear_87_7435)"
     id="path3"
     style="fill:url(#paint0_linear_87_7435);stroke-width:1.61082" />
  <path
     fill-rule="evenodd"
     clip-rule="evenodd"
     d="m 15.935277,7.1832875 c 0.01618,0.7728182 0.411432,1.4317725 0.966533,1.7294681 -1.811015,-0.1452657 -4.055079,0.4475341 -4.055079,1.5695694 -0.02791,1.897904 -1.207571,4.259347 -2.056819,5.959091 -0.16716,0.334888 -0.321553,0.644016 -0.451945,0.918847 -0.5256519,1.16563 -0.8410779,2.412354 -0.8783563,3.634993 C 8.067347,19.276762 9.0789893,17.072171 9.6243871,16.115369 10.350223,14.856298 10.336265,14.699143 10.054374,14.994248 8.9736203,16.63988 6.9384212,19.94532 9.4870161,21.931022 c 0.08085,0.886685 0.322064,1.74578 0.7506889,2.535519 3.411802,6.162278 9.800825,3.631029 11.908199,0.435796 0.280359,-0.454393 0.507098,-0.893848 0.687025,-1.318518 0.105535,0.05944 0.218568,0.105481 0.338746,0.135815 1.059304,0.280166 2.64256,-0.788367 3.021648,-1.452351 0.457223,-0.881806 -0.01106,-1.483599 -1.572019,-2.199409 -0.07966,-0.03522 -0.158308,-0.06844 -0.235931,-0.09938 0.598678,-2.257332 -1.051134,-4.604752 -2.229425,-5.600575 -0.21976,-0.04863 -0.25074,0.06295 0.09039,0.367661 0.742007,0.636851 2.356072,2.907293 1.482822,5.020428 -0.143839,-0.0346 -0.282232,-0.05899 -0.414155,-0.0724 -0.268273,-1.44168 -0.983555,-2.56326 -1.483503,-3.347053 -0.1132,-0.177581 -0.215335,-0.337785 -0.298914,-0.480459 C 21.364404,15.568153 21.1632,15.27 20.949738,14.95386 20.127385,13.735489 19.124255,12.249146 19.124255,10.046535 18.998459,9.5619607 18.487787,9.2388097 17.808082,9.0603144 c 0.788989,-0.1425226 1.381199,-0.9679299 1.360771,-1.959943 -0.0223,-1.0686089 -0.769413,-1.919289 -1.661387,-1.898528 -0.891975,0.020745 -1.605554,0.9129175 -1.57219,1.9814506 z m 0.735879,0.2385522 c -0.01106,0.5914276 0.301127,1.068533 0.71375,1.068533 0.401389,0 0.746944,-0.4771054 0.758178,-1.058168 0.01106,-0.5912597 -0.301126,-1.0684713 -0.71358,-1.0684713 -0.412623,0 -0.747113,0.4772116 -0.758348,1.0581063 z"
     fill="url(#paint1_linear_87_7435)"
     id="path4"
     style="fill:url(#paint1_linear_87_7435);stroke-width:1.61082" />
  <path
     fill-rule="evenodd"
     clip-rule="evenodd"
     d="m 13.705341,8.8430954 c 0.646682,-0.031097 1.114968,-0.809098 1.059304,-1.7323654 -0.05583,-0.9233585 -0.624382,-1.6391689 -1.271233,-1.6080574 -0.646681,0.03113 -1.114968,0.809189 -1.059135,1.7324401 0.05566,0.9232675 0.624382,1.6390779 1.271064,1.6079827 z M 14.095495,7.4322047 C 14.151325,7.919828 13.950633,8.334742 13.660742,8.376355 13.37085,8.407452 13.092023,8.0443635 13.03636,7.5567403 12.98053,7.0691777 13.181221,6.6542029 13.471113,6.6127124 c 0.289892,-0.03113 0.568719,0.3319612 0.624382,0.8194923 z"
     fill="url(#paint2_linear_87_7435)"
     id="path5"
     style="fill:url(#paint2_linear_87_7435);stroke-width:1.61082" />
  <path
     d="m 16.838316,7.0898937 c -0.03354,0.331946 0.133797,0.6017472 0.367854,0.6224773 0.234229,0.020728 0.457222,-0.238705 0.490586,-0.5601797 0.03354,-0.3320381 -0.133795,-0.6017624 -0.367854,-0.6225076 -0.234228,-0.02075 -0.457222,0.2386128 -0.490586,0.56021 z"
     fill="url(#paint3_linear_87_7435)"
     id="path6"
     style="fill:url(#paint3_linear_87_7435);stroke-width:1.61082" />
  <path
     d="m 13.850712,7.1730741 c 0.03336,0.2698012 -0.0892,0.5083534 -0.267591,0.5290835 -0.178396,0.020728 -0.345726,-0.1867258 -0.37926,-0.4667393 -0.03336,-0.269786 0.0892,-0.5083837 0.267762,-0.5291301 0.178395,-0.02075 0.345555,0.1971072 0.379089,0.4667859 z"
     fill="url(#paint4_linear_87_7435)"
     id="path7"
     style="fill:url(#paint4_linear_87_7435);stroke-width:1.61082" />
  <path
     d="m 20.70734,17.992999 c 0,1.825804 -1.884381,4.19121 -5.117788,4.17048 -3.33401,0.02073 -4.749934,-2.344676 -4.749934,-4.17048 0,-1.825804 2.207636,-3.309403 4.928329,-3.309403 2.731757,0.01051 4.939393,1.483599 4.939393,3.309403 z"
     fill="url(#paint5_linear_87_7435)"
     id="path8"
     style="fill:url(#paint5_linear_87_7435);stroke-width:1.61082" />
  <path
     d="m 18.946542,12.256608 c -0.03336,1.888148 -1.360261,2.334158 -3.032883,2.334158 -1.672452,0 -2.887853,-0.280166 -3.032714,-2.334158 0,-1.286355 1.360262,-2.033413 3.032714,-2.033413 1.672622,-0.0104 3.032883,0.736693 3.032883,2.033413 z"
     fill="url(#paint6_linear_87_7435)"
     id="path9"
     style="fill:url(#paint6_linear_87_7435);stroke-width:1.61082" />
  <path
     d="m 8.8335263,15.161158 c 1.0928388,-1.545638 3.4007377,-3.921408 0.4349226,0.331993 -2.4085013,3.506494 -0.891974,5.75773 -0.1114964,6.380101 2.2522345,1.867418 2.1630375,3.122676 0.3901536,2.137066 -3.8020927,-2.10597 -3.0104146,-5.653927 -0.7135798,-8.84916 z"
     fill="url(#paint7_linear_87_7435)"
     id="path10"
     style="fill:url(#paint7_linear_87_7435);stroke-width:1.61082" />
  <path
     d="m 24.655008,15.794199 c -0.947638,-1.815439 -3.958221,-6.4215624 0.145031,-1.068532 3.735228,4.844676 1.114969,8.216271 0.646682,8.548262 -0.468287,0.331993 -2.040477,1.006189 -1.583256,-0.165996 0.468287,-1.172337 2.787421,-3.392325 0.791543,-7.313734 z"
     fill="url(#paint8_linear_87_7435)"
     id="path11"
     style="fill:url(#paint8_linear_87_7435);stroke-width:1.61082" />
  <path
     d="M 8.0084495,30.110558 C 5.5108365,28.87603 1.887071,30.349111 3.2027672,27.008612 c 0.2676095,-0.757271 -0.3902558,-1.89836 0.033449,-2.635054 0.5017526,-0.902537 1.5833046,-0.705445 2.2300031,-1.307086 0.635549,-0.62237 1.0369374,-1.701268 2.2300385,-1.535425 1.181866,0.165996 1.9735783,1.514695 2.7986552,3.174503 0.613318,1.182702 2.776356,2.852876 2.631324,4.180845 -0.178395,2.03326 -2.664858,2.417079 -5.1177875,1.224163 z"
     fill="url(#paint9_linear_87_7435)"
     id="path12"
     style="fill:url(#paint9_linear_87_7435);stroke-width:1.61082" />
  <path
     fill-rule="evenodd"
     clip-rule="evenodd"
     d="m 5.7406219,23.309598 c -0.6073599,0.594934 -1.7228725,0.452259 -2.170562,1.230566 -0.2875255,0.499818 0.026624,1.268063 0.069009,1.815439 0.05236,0.676331 -0.5737064,1.634504 -0.2548767,2.212061 0.3580666,0.648589 1.9756717,0.564447 2.6867666,0.657582 1.7553514,0.22956 4.6566512,2.263888 6.2439912,0.640358 1.551763,-1.587099 -1.430904,-3.595667 -2.162527,-5.006557 C 9.6766461,23.901788 8.9645988,22.066686 7.6392333,21.880263 6.7048738,21.750394 6.279313,22.782039 5.7406219,23.309598 Z m 2.0114709,-2.127615 c 1.6503227,0.231846 2.4760802,2.147583 3.0851422,3.372662 0.924486,1.776569 4.092188,3.686209 2.039114,5.786082 -1.864634,1.907202 -4.8084906,-0.141302 -6.9110994,-0.416286 -1.0501813,-0.137491 -2.7065978,-0.03871 -3.2561152,-1.034236 -0.4724571,-0.85574 0.2390627,-1.630846 0.1730157,-2.483843 -0.056276,-0.726786 -0.377472,-1.507226 0.017534,-2.197123 0.5407509,-0.969606 1.5846845,-0.734864 2.2942137,-1.389245 0.753463,-0.741419 1.2050838,-1.826262 2.5581953,-1.638011 z"
     fill="#e68c3f"
     id="path13"
     style="stroke-width:1.61082" />
  <path
     d="m 25.3245,29.540014 c 1.828547,-2.064357 5.898266,-1.639078 3.155445,-4.471224 -0.579784,-0.612006 -0.401389,-1.919244 -1.114969,-2.479423 -0.836311,-0.684714 -1.761819,-0.124535 -2.609195,-0.477257 -0.847376,-0.383818 -1.73935,-1.12036 -2.776356,-0.601641 -1.037005,0.529084 -1.148502,1.898514 -1.248764,3.703587 -0.0892,1.29672 -1.360262,3.464882 -0.680215,4.65795 0.981341,1.846534 3.534704,1.597617 5.274054,-0.331992 z"
     fill="url(#paint10_linear_87_7435)"
     id="path14"
     style="fill:url(#paint10_linear_87_7435);stroke-width:1.61082" />
  <path
     fill-rule="evenodd"
     clip-rule="evenodd"
     d="m 26.053569,21.873405 c 0.468797,-0.01113 1.030367,0.01829 1.557721,0.448601 0.655874,0.517804 0.662343,1.363026 0.909678,2.070758 0.292786,0.83806 1.319067,1.316841 1.257616,2.299708 -0.100259,1.606458 -3.207362,1.993477 -4.163682,3.07329 -0.91904,1.019451 -2.08065,1.626426 -3.183022,1.70828 -1.671771,0.124079 -3.052628,-1.134687 -2.95492,-2.671636 0.07933,-1.244285 0.787117,-2.374551 0.87342,-3.608776 0.0497,-0.893848 0.103325,-1.722456 0.283763,-2.395282 0.182311,-0.679989 0.510844,-1.265472 1.16144,-1.597464 1.424776,-0.712762 2.801208,0.706665 4.257986,0.672521 z m -3.894387,-0.05258 c -0.385728,0.197244 -0.631021,0.560789 -0.788649,1.148405 -0.1595,0.594782 -0.211928,1.35693 -0.262655,2.267394 -0.08511,1.23712 -0.794267,2.366625 -0.873251,3.607556 -0.07047,1.106488 0.878698,2.01939 2.136995,1.92595 0.854014,-0.06341 1.839271,-0.546308 2.659581,-1.455856 0.732986,-0.82678 3.922985,-1.594569 3.989713,-2.662796 0.04358,-0.69752 -0.981172,-1.3519 -1.221868,-2.040274 -0.188268,-0.538839 -0.198141,-1.373544 -0.680216,-1.752028 -0.308106,-0.252119 -0.632212,-0.289617 -1.046197,-0.27986 -1.19957,0.02804 -2.799847,-1.314098 -3.913453,-0.758491 z"
     fill="#e68c3f"
     id="path15"
     style="stroke-width:1.61082" />
  <path
     d="m 24.531595,26.780425 c 2.83202,-3.890314 0.724645,-3.859219 0.01106,-4.160115 -0.713579,-0.311108 -1.460523,-0.923267 -2.296834,-0.497835 -0.836312,0.435644 -0.88091,1.556003 -0.90321,3.029237 -0.03336,1.058168 -0.981171,2.832146 -0.412452,3.817604 0.69128,1.151607 2.363732,-0.518718 3.601431,-2.188891 z"
     fill="url(#paint11_linear_87_7435)"
     id="path16"
     style="fill:url(#paint11_linear_87_7435);stroke-width:1.61082" />
  <path
     d="M 7.4284965,27.340299 C 3.1914304,24.78832 5.1761243,23.916879 5.8116906,23.512177 c 0.76943,-0.518719 0.7804939,-1.514542 1.7283022,-1.421255 0.9476382,0.09344 1.5051221,1.182703 2.1407393,2.531402 0.4682869,0.964728 2.0963109,2.251083 1.9735779,3.361076 -0.156096,1.307238 -2.3972664,0.446163 -4.2258135,-0.643101 z"
     fill="url(#paint12_linear_87_7435)"
     id="path17"
     style="fill:url(#paint12_linear_87_7435);stroke-width:1.61082" />
  <path
     d="m 25.948712,22.236188 c -0.334491,0.539448 -1.694752,1.390007 -2.597961,1.161819 -0.925338,-0.217822 -1.349027,-1.43162 -1.159567,-2.344523 0.167331,-1.037437 1.159567,-1.089263 2.408501,-0.570544 1.326727,0.560179 1.73935,1.037437 1.349027,1.753248 z"
     fill="#000000"
     id="path18"
     style="stroke-width:1.61082" />
  <path
     d="m 25.034097,21.935443 c -0.211928,0.373453 -1.103903,0.964729 -1.728285,0.809098 -0.624383,-0.155632 -0.936574,-0.995824 -0.836311,-1.628713 0.0892,-0.71581 0.758178,-0.757271 1.605724,-0.404549 0.914273,0.394184 1.204165,0.726176 0.958872,1.224164 z"
     fill="url(#paint13_linear_87_7435)"
     id="path19"
     style="fill:url(#paint13_linear_87_7435);stroke-width:1.61082" />
  <path
     d="m 13.504136,8.3976951 c 0.445987,-0.3839706 1.527592,-1.5561866 3.579133,-0.3319914 0.379089,0.2281871 0.69128,0.2489172 1.416095,0.5394485 1.460693,0.5601801 0.769242,1.9087268 -0.791713,2.3652538 -0.668981,0.197092 -1.271063,0.954362 -2.47523,0.881806 -1.037005,-0.05182 -1.304597,-0.684714 -1.940214,-1.027072 -1.126033,-0.591275 -1.293363,-1.3901593 -0.680045,-1.8154384 0.613147,-0.4252795 0.847375,-0.5809102 0.891974,-0.6120065 z"
     fill="url(#paint14_linear_87_7435)"
     id="path20"
     style="fill:url(#paint14_linear_87_7435);stroke-width:1.61082" />
  <path
     fill-rule="evenodd"
     clip-rule="evenodd"
     d="m 12.748171,9.1792037 c -0.233208,0.1617277 -0.307425,0.3766535 -0.230313,0.6144439 0.158308,0.4883854 1.299831,1.1601434 1.736967,1.4887824 0.248527,0.186879 0.532801,0.33504 0.992236,0.358057 0.983895,0.05929 1.530315,-0.61856 2.39233,-0.872509 0.566846,-0.165842 1.766416,-0.7993402 1.369113,-1.525364 C 18.669417,8.6229871 17.527213,8.5847265 16.959856,8.2432834 15.983451,7.6608502 15.272594,7.6649654 14.766177,7.8283705 14.211247,8.0074747 13.250672,8.8305958 12.748171,9.1792037 Z m 1.86872,-1.7511142 c 0.658768,-0.2124868 1.515165,-0.1820017 2.58996,0.4592705 0.70643,0.4252791 1.781226,0.3842762 2.207297,1.1630401 0.542844,0.9918599 -0.772478,1.8684849 -1.638067,2.1216699 -0.926871,0.273307 -1.444692,0.957869 -2.557277,0.891257 -0.57689,-0.02911 -0.946957,-0.223462 -1.250127,-0.451345 C 13.3397,11.139146 12.27699,10.689782 12.034081,9.9399806 11.899263,9.524152 12.095875,9.1031409 12.475982,8.8394363 13.090321,8.4133955 13.920505,7.6529231 14.616891,7.4280895 Z"
     fill="#e68c3f"
     id="path21"
     style="stroke-width:1.61082" />
  <path
     fill-rule="evenodd"
     clip-rule="evenodd"
     d="m 18.674014,9.4791855 c 0.0046,0.077895 -0.05958,0.1445028 -0.14316,0.1486192 -1.180164,0.059908 -2.009495,1.2659293 -3.34218,1.2659293 -0.745752,0 -1.336089,-0.322237 -1.758245,-0.632127 -0.08494,-0.06235 -0.83546,-0.5804526 -0.83546,-0.7124569 0,-0.078047 0.06792,-0.1413021 0.15184,-0.1413021 0.156777,0 0.62983,0.4597278 0.80584,0.5889886 0.397644,0.2919034 0.987982,0.6144454 1.636025,0.6144454 1.319407,0 2.128823,-1.2046529 3.325498,-1.2654726 0.08375,-0.00423 0.155245,0.055488 0.159842,0.1333761 z"
     fill="#e68c3f"
     id="path22"
     style="stroke-width:1.61082" />
  <path
     d="m 14.196608,8.2935852 c 0.222994,-0.1867258 0.925338,-0.6950792 1.850847,-0.1763608 0.200694,0.1036505 0.401388,0.2178221 0.69128,0.3734528 0.591018,0.3216275 0.301126,0.7883673 -0.412623,1.0788986 C 16.002856,9.6941113 15.467671,9.9637597 15.066283,9.9430285 14.620295,9.9015727 14.319169,9.6317671 14.029277,9.4554063 13.482858,9.1235665 13.516392,8.8433999 13.77275,8.6255778 13.962379,8.4595821 14.174309,8.3039514 14.196608,8.2935852 Z"
     fill="url(#paint15_linear_87_7435)"
     id="path23"
     style="fill:url(#paint15_linear_87_7435);stroke-width:1.61082" />
  <defs
     id="defs54">
    <linearGradient
       id="paint0_linear_87_7435"
       x1="16.0578"
       y1="6.30617"
       x2="15.8364"
       y2="9.30598"
       gradientUnits="userSpaceOnUse"
       gradientTransform="matrix(1.7022413,0,0,1.5242979,-11.071803,-8.1525226)">
      <stop
         stop-color="white"
         stop-opacity="0.8"
         id="stop23" />
      <stop
         offset="1"
         stop-color="white"
         stop-opacity="0"
         id="stop24" />
    </linearGradient>
    <linearGradient
       id="paint1_linear_87_7435"
       x1="12.8966"
       y1="22.6721"
       x2="11.2506"
       y2="17.2716"
       gradientUnits="userSpaceOnUse"
       gradientTransform="matrix(1.7022413,0,0,1.5242979,-11.071803,-8.1525226)">
      <stop
         stop-color="#FFEED7"
         id="stop25" />
      <stop
         offset="1"
         stop-color="#BDBFC2"
         id="stop26" />
    </linearGradient>
    <linearGradient
       id="paint2_linear_87_7435"
       x1="12.8966"
       y1="22.6721"
       x2="11.2506"
       y2="17.2716"
       gradientUnits="userSpaceOnUse"
       gradientTransform="matrix(1.7022413,0,0,1.5242979,-11.071803,-8.1525226)">
      <stop
         stop-color="#FFEED7"
         id="stop27" />
      <stop
         offset="1"
         stop-color="#BDBFC2"
         id="stop28" />
    </linearGradient>
    <linearGradient
       id="paint3_linear_87_7435"
       x1="16.6681"
       y1="9.65546"
       x2="16.5748"
       y2="10.3542"
       gradientUnits="userSpaceOnUse"
       gradientTransform="matrix(1.7022413,0,0,1.5242979,-11.071803,-8.1525226)">
      <stop
         stop-color="white"
         stop-opacity="0.65"
         id="stop29" />
      <stop
         offset="1"
         stop-color="white"
         stop-opacity="0"
         id="stop30" />
    </linearGradient>
    <linearGradient
       id="paint4_linear_87_7435"
       x1="14.434"
       y1="9.78294"
       x2="14.5344"
       y2="10.3483"
       gradientUnits="userSpaceOnUse"
       gradientTransform="matrix(1.7022413,0,0,1.5242979,-11.071803,-8.1525226)">
      <stop
         stop-color="white"
         stop-opacity="0.65"
         id="stop31" />
      <stop
         offset="1"
         stop-color="white"
         stop-opacity="0"
         id="stop32" />
    </linearGradient>
    <linearGradient
       id="paint5_linear_87_7435"
       x1="15.7613"
       y1="15.6306"
       x2="15.778"
       y2="19.6272"
       gradientUnits="userSpaceOnUse"
       gradientTransform="matrix(1.7022413,0,0,1.5242979,-11.071803,-8.1525226)">
      <stop
         stop-color="white"
         stop-opacity="0.8"
         id="stop33" />
      <stop
         offset="1"
         stop-color="white"
         stop-opacity="0"
         id="stop34" />
    </linearGradient>
    <linearGradient
       id="paint6_linear_87_7435"
       x1="15.8504"
       y1="13.1247"
       x2="15.8688"
       y2="14.7138"
       gradientUnits="userSpaceOnUse"
       gradientTransform="matrix(1.7022413,0,0,1.5242979,-11.071803,-8.1525226)">
      <stop
         stop-color="white"
         stop-opacity="0.65"
         id="stop35" />
      <stop
         offset="1"
         stop-color="white"
         stop-opacity="0"
         id="stop36" />
    </linearGradient>
    <linearGradient
       id="paint7_linear_87_7435"
       x1="11.72"
       y1="14.1055"
       x2="11.72"
       y2="19.9372"
       gradientUnits="userSpaceOnUse"
       gradientTransform="matrix(1.7022413,0,0,1.5242979,-11.071803,-8.1525226)">
      <stop
         stop-color="white"
         stop-opacity="0.65"
         id="stop37" />
      <stop
         offset="1"
         stop-color="white"
         stop-opacity="0"
         id="stop38" />
    </linearGradient>
    <linearGradient
       id="paint8_linear_87_7435"
       x1="21.033"
       y1="13.5359"
       x2="21.0308"
       y2="18.8052"
       gradientUnits="userSpaceOnUse"
       gradientTransform="matrix(1.7022413,0,0,1.5242979,-11.071803,-8.1525226)">
      <stop
         stop-color="white"
         stop-opacity="0.65"
         id="stop39" />
      <stop
         offset="1"
         stop-color="white"
         stop-opacity="0"
         id="stop40" />
    </linearGradient>
    <linearGradient
       id="paint9_linear_87_7435"
       x1="11.4286"
       y1="22.4374"
       x2="10.5354"
       y2="25.4214"
       gradientUnits="userSpaceOnUse"
       gradientTransform="matrix(1.7022413,0,0,1.5242979,-11.071803,-8.1525226)">
      <stop
         stop-color="#FFA63F"
         id="stop41" />
      <stop
         offset="1"
         stop-color="#FFFF00"
         id="stop42" />
    </linearGradient>
    <linearGradient
       id="paint10_linear_87_7435"
       x1="19.882"
       y1="21.53"
       x2="22.2656"
       y2="24.7801"
       gradientUnits="userSpaceOnUse"
       gradientTransform="matrix(1.7022413,0,0,1.5242979,-11.071803,-8.1525226)">
      <stop
         stop-color="#FFA63F"
         id="stop43" />
      <stop
         offset="1"
         stop-color="#FFFF00"
         id="stop44" />
    </linearGradient>
    <linearGradient
       id="paint11_linear_87_7435"
       x1="20.5198"
       y1="18.9333"
       x2="19.6863"
       y2="22.8605"
       gradientUnits="userSpaceOnUse"
       gradientTransform="matrix(1.7022413,0,0,1.5242979,-11.071803,-8.1525226)">
      <stop
         stop-color="white"
         stop-opacity="0.65"
         id="stop45" />
      <stop
         offset="1"
         stop-color="white"
         stop-opacity="0"
         id="stop46" />
    </linearGradient>
    <linearGradient
       id="paint12_linear_87_7435"
       x1="11.2464"
       y1="19.9042"
       x2="11.4117"
       y2="24.3239"
       gradientUnits="userSpaceOnUse"
       gradientTransform="matrix(1.7022413,0,0,1.5242979,-11.071803,-8.1525226)">
      <stop
         stop-color="white"
         stop-opacity="0.65"
         id="stop47" />
      <stop
         offset="1"
         stop-color="white"
         stop-opacity="0"
         id="stop48" />
    </linearGradient>
    <linearGradient
       id="paint13_linear_87_7435"
       x1="20.3755"
       y1="18.8616"
       x2="20.5688"
       y2="20.1822"
       gradientUnits="userSpaceOnUse"
       gradientTransform="matrix(1.7022413,0,0,1.5242979,-11.071803,-8.1525226)">
      <stop
         stop-color="white"
         stop-opacity="0.65"
         id="stop49" />
      <stop
         offset="1"
         stop-color="white"
         stop-opacity="0"
         id="stop50" />
    </linearGradient>
    <linearGradient
       id="paint14_linear_87_7435"
       x1="15.7644"
       y1="10.784"
       x2="15.7805"
       y2="13.1098"
       gradientUnits="userSpaceOnUse"
       gradientTransform="matrix(1.7022413,0,0,1.5242979,-11.071803,-8.1525226)">
      <stop
         stop-color="#FFA63F"
         id="stop51" />
      <stop
         offset="1"
         stop-color="#FFFF00"
         id="stop52" />
    </linearGradient>
    <linearGradient
       id="paint15_linear_87_7435"
       x1="15.5106"
       y1="10.5638"
       x2="15.5062"
       y2="11.7936"
       gradientUnits="userSpaceOnUse"
       gradientTransform="matrix(1.7022413,0,0,1.5242979,-11.071803,-8.1525226)">
      <stop
         stop-color="white"
         stop-opacity="0.65"
         id="stop53" />
      <stop
         offset="1"
         stop-color="white"
         stop-opacity="0"
         id="stop54" />
    </linearGradient>
  </defs>
</svg>
